Coordinates
version=1
nRows=8
nColumns=28
inDegrees=yes

Units are S.I. units (second, meters, Newtons, ...)
Angles are in degrees.

endheader
time	pelvis_tilt	pelvis_list	pelvis_rotation	pelvis_tx	pelvis_ty	pelvis_tz	hip_flexion_r	hip_adduction_r	hip_rotation_r	knee_angle_r	ankle_angle_r	subtalar_angle_r	mtp_angle_r	hip_flexion_l	hip_adduction_l	hip_rotation_l	knee_angle_l	socket_flexion	socket_adduction	socket_rotation	socket_tx	socket_ty	socket_tz	foot_flex	lumbar_extension	lumbar_bending	lumbar_rotation
      0.32083333	      2.93914544	      0.17938769	     -6.00002854	     -0.43876292	      1.01560220	      0.28083822	     11.67667024	     -0.53217429	      3.52466927	    -64.54305737	      2.46525841	    -14.11678609	     26.46827351	     -5.21723826	      0.94295248	      9.54194222	      7.31512563	      4.34579922	      0.00000000	      0.00000000	      0.00000000	      0.00000000	      0.00000000	      1.67429888	    -11.53906792	     -3.62104765	      6.41936979
      0.32500000	      3.05945349	     -0.17897369	     -5.81258953	     -0.43359529	      1.01614188	      0.28043053	     11.96132617	     -0.10036627	      3.41798397	    -64.12343484	      3.23170363	    -13.42660104	     26.79754756	     -5.88465615	      0.54715512	      9.81028560	      7.81398501	      4.58781129	      0.00000000	      0.00000000	      0.00000000	      0.00000000	      0.00000000	      1.84374869	    -11.72032193	     -3.14726493	      6.01498234
      0.32916667	      3.11387168	     -0.19052105	     -5.69788212	     -0.42879380	      1.01648726	      0.28016783	     12.47542841	     -0.02859279	      3.41580891	    -63.85206550	      3.28683373	    -13.42167425	     26.80030972	     -6.18671010	      0.59050396	      9.82875370	      7.59678414	      4.36842578	      0.00000000	      0.00000000	      0.00000000	      0.00000000	      0.00000000	      1.89165171	    -11.82789565	     -3.14891133	      6.00338826
      0.33333333	      3.09082412	     -0.48219449	     -5.49265298	     -0.42390888	      1.01682642	      0.27991843	     12.93086345	      0.41819453	      3.40543286	    -63.38525183	      3.97621890	    -13.30016787	     26.96882015	     -6.53167759	      0.26104406	     10.01694603	      7.70052727	      4.39829237	      0.00000000	      0.00000000	      0.00000000	      0.00000000	      0.00000000	      2.15522901	    -11.86009402	     -2.79785523	      5.82898025
      0.33750000	      3.09999521	     -0.77460666	     -5.26125605	     -0.41879036	      1.01712369	      0.27948063	     13.33763430	      0.76755837	      3.23511865	    -62.88092335	      4.42316070	    -12.91362756	     27.12940013	     -7.02015128	     -0.06346137	     10.19245508	      8.07793014	      4.55100353	      0.00000000	      0.00000000	      0.00000000	      0.00000000	      0.00000000	      2.17970950	    -11.88956704	     -2.38650832	      5.47580773
      0.34166667	      3.15605533	     -0.77169226	     -5.13074030	     -0.41424507	      1.01734849	      0.27929613	     13.86137687	      0.82784128	      3.23071110	    -62.55513849	      4.46386748	    -12.90250282	     27.12733811	     -7.30285348	     -0.01734016	     10.19406471	      7.86976561	      4.34027436	      0.00000000	      0.00000000	      0.00000000	      0.00000000	      0.00000000	      2.22850094	    -12.01858840	     -2.40532038	      5.45846961
      0.34583333	      3.18261755	     -1.14990137	     -4.76461156	     -0.40921798	      1.01771019	      0.27878782	     14.16097791	      1.26095812	      2.96281344	    -61.86480727	      5.03722751	    -12.37222697	     27.31756658	     -7.81649704	     -0.47283370	     10.48994826	      8.33725999	      4.62463484	      0.00000000	      0.00000000	      0.00000000	      0.00000000	      0.00000000	      2.41699353	    -12.10565385	     -1.89622957	      4.85441897
      0.35000000	      3.15980479	     -1.32269784	     -4.54012805	     -0.40455971	      1.01786803	      0.27847717	     14.64790340	      1.51166367	      2.86729048	    -61.33681025	      5.41059815	    -12.29962774	     27.38667665	     -8.10626318	     -0.66188615	     10.59488666	      8.38430606	      4.61062847	      0.00000000	      0.00000000	      0.00000000	      0.00000000	      0.00000000	      2.55650115	    -12.15150731	     -1.67126131	      4.69816858
